<?xml version="1.0" encoding="utf-8"?><svg xml:space="preserve" viewBox="0 0 100 100" y="0" x="0" xmlns="http://www.w3.org/2000/svg" id="Layer_1" version="1.1" width="128px" height="128px" xmlns:xlink="http://www.w3.org/1999/xlink" style="width:100%;height:100%;background-size:initial;background-repeat-y:initial;background-repeat-x:initial;background-position-y:initial;background-position-x:initial;background-origin:initial;background-image:initial;background-color:rgb(255, 255, 255);background-clip:initial;background-attachment:initial;animation-play-state:paused" ><g class="ldl-scale" style="transform-origin:50% 50%;transform:rotate(0deg) scale(0.8, 0.8);animation-play-state:paused" ><path fill="#666766" d="M72.4 32.4C71.7 19.9 61.9 10 50 10c-3.3 0-6.7.8-9.6 2.3-3 1.5-5.6 3.7-7.6 6.3-2.1 2.7-3.6 5.8-4.4 9.2-.2.7-.3 1.4-.4 2.1-.1.7-.4 1.7-.2 2.3.4.8 1.3.6 2.1.6h4.4c.5 0 1.1.1 1.5-.2.2-.2.3-.4.4-.6.1-.2.1-.5.1-.8.4-3.4 2.2-6.6 4.7-8.9 2.5-2.3 5.7-3.6 9.1-3.6 7.6 0 13.9 6.6 14 14.6v20.8c0 2.3 1.9 4.2 4.2 4.2 2.3 0 4.2-1.9 4.2-4.2V33.3l-.1-.9z" style="fill:rgb(102, 103, 102);animation-play-state:paused" ></path>
<path fill="#333" d="M73.6 42.8H20v37.7c0 5.3 4.3 9.5 9.5 9.5h41c5.3 0 9.5-4.3 9.5-9.5V42.8h-6.4z" style="fill:rgb(51, 51, 51);animation-play-state:paused" ></path>
<path fill="#fff" d="M50 55.3c-3.2 0-5.9 2.6-5.9 5.9 0 2.3 1.4 4.3 3.4 5.3l-.1 8h5.3l-.1-8c2-.9 3.4-2.9 3.4-5.3-.1-3.2-2.8-5.9-6-5.9z" style="fill:rgb(255, 255, 255);animation-play-state:paused" ></path>
<metadata xmlns:d="https://loading.io/stock/" style="animation-play-state:paused" ><d:name style="animation-play-state:paused" >unlock</d:name>
<d:tags style="animation-play-state:paused" >lock,key,door,security,password,unlock,web application</d:tags>
<d:license style="animation-play-state:paused" >pro</d:license>
<d:slug style="animation-play-state:paused" >6xdi0g</d:slug></metadata></g><!-- generated by https://loading.io/ --></svg>